<svg width="1449" height="1449" xmlns="http://www.w3.org/2000/svg">

 <g>
  <title>background</title>
  <rect fill="none" id="canvas_background" height="1451" width="1451" y="-1" x="-1"/>
 </g>
 <g>
  <title>Layer 1</title>
  <g id="svg_4" transform="matrix(0.239484, 0, 0, -0.239484, 1162.14, 1531.05)">
   <path fill="#61dafb" id="svg_3" d="m713.818726,1240.830444q0,-120 -73,-189.5q-73,-69.5 -194,-69.5l-874.000061,0q-121,0 -194.000061,69.5q-73,69.5 -73,189.5q0,53 3.5,103.5q3.5,50.5 14,109q10.5,58.5 26.5,108.5q16,50 43.000061,97.5q27,47.5 62,81q35,33.5 85.5,53.5q50.5,20 111.5,20q9,0 42,-21.5q33,-21.5 74.5,-48q41.5,-26.5 108,-48q66.5,-21.5 133.5,-21.5q67,0 133.5,21.5q66.500061,21.5 108.000061,48q41.5,26.5 74.5,48q33,21.5 42,21.5q61,0 111.5,-20q50.5,-20 85.5,-53.5q35,-33.5 62,-81q27,-47.5 43,-97.5q16,-50 26.5,-108.5q10.5,-58.5 14,-109q3.5,-50.5 3.5,-103.5zm-320,892.999878q0,-158.999878 -112.5,-271.499878q-112.500061,-112.5 -271.500061,-112.5q-159,0 -271.5,112.5q-112.5,112.5 -112.5,271.499878q0,159 112.5,271.5q112.5,112.5 271.5,112.5q159,0 271.500061,-112.5q112.5,-112.5 112.5,-271.5z"/>
  </g>
  <g id="svg_10" transform="matrix(0.239484, 0, 0, -0.239484, 1162.14, 1531.05)">
   <path fill="#61dafb" id="svg_9" d="m-1360.573975,683.948547q0,-120 -73,-189.5q-73,-69.5 -194,-69.5l-874,0q-121,0 -194,69.5q-73,69.5 -73,189.5q0,53 3.5,103.5q3.5,50.5 14,109q10.5,58.5 26.5,108.5q16,49.999939 43,97.499939q27,47.5 62,81q35,33.5 85.5,53.5q50.5,20 111.5,20q9,0 42,-21.5q33,-21.5 74.5,-48q41.5,-26.5 108,-48q66.5,-21.5 133.5,-21.5q67.000122,0 133.500122,21.5q66.5,21.5 108,48q41.5,26.5 74.5,48q33,21.5 42,21.5q61,0 111.499878,-20q50.5,-20 85.5,-53.5q35,-33.5 62,-81q27,-47.5 43,-97.499939q16,-50 26.5,-108.5q10.5,-58.5 14,-109q3.5,-50.5 3.5,-103.5zm-319.999878,892.999939q0,-159 -112.5,-271.5q-112.5,-112.5 -271.500122,-112.5q-159,0 -271.5,112.5q-112.5,112.5 -112.5,271.5q0,159 112.5,271.5q112.5,112.5 271.5,112.5q159.000122,0 271.500122,-112.5q112.5,-112.5 112.5,-271.5z"/>
  </g>
  <g id="svg_12" transform="matrix(0.239484, 0, 0, -0.239484, 1162.14, 1531.05)">
   <path fill="#61dafb" id="svg_11" d="m880.882568,5041.562012q0,-120 -73,-189.5q-73,-69.5 -194,-69.5l-874.000092,0q-121,0 -194,69.5q-73.000031,69.5 -73.000031,189.5q0,53 3.5,103.5q3.5,50.5 14.000031,109q10.5,58.5 26.5,108.500488q16,50 43,97.5q27,47.5 62,81q35,33.5 85.5,53.5q50.5,20 111.5,20q9,0 42,-21.5q33,-21.5 74.5,-48q41.5,-26.5 108,-48q66.5,-21.5 133.5,-21.5q66.999939,0 133.499939,21.5q66.500122,21.5 108.000122,48q41.5,26.5 74.5,48q33.000031,21.5 42.000031,21.5q61,0 111.5,-20q50.5,-20 85.5,-53.5q35,-33.5 62,-81q27,-47.5 43,-97.5q16,-50.000488 26.5,-108.500488q10.5,-58.5 14,-109q3.5,-50.5 3.5,-103.5zm-320,893.000488q0,-159 -112.500031,-271.5q-112.500122,-112.5 -271.500061,-112.5q-159,0 -271.5,112.5q-112.5,112.5 -112.5,271.5q0,159 112.5,271.5q112.5,112.5 271.5,112.5q158.999939,0 271.500061,-112.5q112.500031,-112.5 112.500031,-271.5z"/>
  </g>
  <g id="svg_14" transform="matrix(0.239484, 0, 0, -0.239484, 1162.14, 1531.05)">
   <path fill="#61dafb" id="svg_13" d="m-761.923828,2981.093262q0,-120 -73,-189.5q-73,-69.5 -194,-69.5l-874.000122,0q-121,0 -194.000122,69.5q-73,69.5 -73,189.5q0,53 3.5,103.5q3.5,50.5 14,109q10.5,58.5 26.5,108.5q16,50 43,97.5q27,47.5 62.000122,81q35,33.5 85.5,53.5q50.5,20 111.5,20q9,0 42,-21.5q33,-21.5 74.5,-48q41.5,-26.5 108,-48q66.5,-21.5 133.5,-21.5q67,0 133.5,21.5q66.500122,21.5 108.000122,48q41.5,26.5 74.5,48q33,21.5 42,21.5q61,0 111.5,-20q50.5,-20 85.5,-53.5q35,-33.5 62,-81q27,-47.5 43,-97.5q16,-50 26.5,-108.5q10.5,-58.5 14,-109q3.5,-50.5 3.5,-103.5zm-320,893q0,-159 -112.5,-271.5q-112.500122,-112.5 -271.500122,-112.5q-159,0 -271.5,112.5q-112.5,112.5 -112.5,271.5q0,159 112.5,271.5q112.5,112.5 271.5,112.5q159,0 271.500122,-112.5q112.5,-112.5 112.5,-271.5z"/>
  </g>
  <g id="svg_16" transform="matrix(0.239484, 0, 0, -0.239484, 1162.14, 1531.05)">
   <path fill="#61dafb" id="svg_15" d="m-2947.691895,1630.650391q0,-120 -73,-189.5q-73,-69.5 -194,-69.5l-874.000244,0q-120.999756,0 -193.999756,69.5q-73,69.5 -73,189.5q0,53 3.5,103.5q3.5,50.5 14,109q10.5,58.5 26.5,108.5q16,50 43,97.5q27,47.5 62,81q35,33.5 85.5,53.5q50.499756,20 111.499756,20q9,0 42,-21.5q33,-21.5 74.5,-48q41.5,-26.5 108,-48q66.5,-21.5 133.500244,-21.5q67,0 133.5,21.5q66.5,21.5 108,48q41.5,26.5 74.5,48q33,21.5 42,21.5q61,0 111.5,-20q50.5,-20 85.5,-53.5q35,-33.5 62,-81q27,-47.5 43,-97.5q16,-50 26.5,-108.5q10.5,-58.5 14,-109q3.5,-50.5 3.5,-103.5zm-320,893q0,-159 -112.5,-271.5q-112.5,-112.5 -271.5,-112.5q-159.000244,0 -271.500244,112.5q-112.5,112.5 -112.5,271.5q0,159 112.5,271.5q112.5,112.5 271.500244,112.5q159,0 271.5,-112.5q112.5,-112.5 112.5,-271.5z"/>
  </g>
  <line stroke-linecap="round" stroke-linejoin="undefined" id="svg_17" y2="831.484787" x2="590.928245" y1="928.174192" x1="427.556491" stroke-width="42.5" stroke="#61dafb" fill="none"/>
  <line stroke-linecap="round" stroke-linejoin="undefined" id="svg_18" y2="928.174192" x2="774.304702" y1="1048.202419" x1="750.96588" stroke-width="42.5" stroke="#61dafb" fill="none"/>
  <line stroke-linecap="round" stroke-linejoin="undefined" id="svg_19" y2="444.727167" x2="1177.732909" y1="871.494196" x1="1181.067027" stroke-width="42.5" stroke="#61dafb" fill="none"/>
  <line stroke-linecap="round" stroke-linejoin="undefined" id="svg_20" y2="431.390697" x2="1017.695273" y1="578.091864" x1="924.339986" stroke-width="42.5" stroke="#61dafb" fill="none"/>
  <line stroke-linecap="round" stroke-linejoin="undefined" id="svg_21" y2="1198.237702" x2="951.012925" y1="1238.247111" x1="837.652933" stroke-width="42.5" stroke="#61dafb" fill="none"/>
  <line stroke-linecap="round" stroke-linejoin="undefined" id="svg_22" y2="1018.195362" x2="1021.029391" y1="901.501253" x1="964.349395" stroke-width="42.5" stroke="#61dafb" fill="none"/>
 </g>
</svg>