<?xml version="1.0" encoding="utf-8"?>
<!-- Generator: Adobe Illustrator 22.0.1, SVG Export Plug-In . SVG Version: 6.00 Build 0)  -->
<svg version="1.1" id="Ebene_1" xmlns="http://www.w3.org/2000/svg" xmlns:xlink="http://www.w3.org/1999/xlink" x="0px" y="0px"
	 viewBox="15 15 61 60" xml:space="preserve">
<g>
	<path style="fill:#33383c;" class="st0" d="M26.6,45.4c0,9.9,8.1,18,18,18s18-8.1,18-18h-2c0,8.8-7.2,16-16,16s-16-7.2-16-16s7.2-16,16-16
		c2.3,0,4.5,0.5,6.5,1.4l0.8-1.8c-2.3-1-4.8-1.6-7.3-1.6C34.7,27.3,26.6,35.4,26.6,45.4z"/>
	<path style="fill:#33383c;" class="st0" d="M72.9,38.8l-5.1-0.5l-0.2,2l4.2,0.4V50l-4.2,0.4c-0.4,0-0.8,0.3-0.9,0.7c-0.5,2-1.3,3.9-2.4,5.7
		c-0.2,0.4-0.2,0.8,0.1,1.1l2.6,3.3l-6.6,6.6l-3.3-2.6C57,65,56.5,65,56.2,65.2c-1.8,1-3.7,1.8-5.7,2.4c-0.4,0.1-0.7,0.4-0.7,0.9
		l-0.4,4.2h-9.4l-0.4-4.2c0-0.4-0.3-0.8-0.7-0.9c-2-0.5-3.9-1.3-5.7-2.4c-0.4-0.2-0.8-0.2-1.1,0.1l-3.3,2.6L22,61.3l2.6-3.3
		c0.3-0.3,0.3-0.8,0.1-1.1c-1-1.8-1.8-3.7-2.4-5.7c-0.1-0.4-0.4-0.7-0.9-0.7L17.4,50v-9.4l4.2-0.4c0.4,0,0.8-0.3,0.9-0.7
		c0.5-2,1.3-3.9,2.4-5.7c0.2-0.4,0.2-0.8-0.1-1.1L22,29.4l6.6-6.6l3.3,2.6c0.3,0.3,0.8,0.3,1.1,0.1c1.8-1,3.7-1.8,5.7-2.4
		c0.4-0.1,0.7-0.4,0.7-0.9l0.4-4.2h9.4l0.4,4.2c0,0.4,0.3,0.8,0.7,0.9c2,0.5,3.9,1.3,5.7,2.4l1-1.7c-1.7-1-3.6-1.8-5.5-2.4L51.2,17
		c-0.1-0.5-0.5-0.9-1-0.9H39c-0.5,0-0.9,0.4-1,0.9l-0.5,4.4c-1.7,0.5-3.3,1.2-4.9,2l-3.4-2.8c-0.4-0.3-1-0.3-1.3,0.1L20,28.6
		c-0.4,0.4-0.4,0.9-0.1,1.3l2.8,3.4c-0.9,1.6-1.5,3.2-2,4.9l-4.4,0.5c-0.5,0.1-0.9,0.5-0.9,1v11.2c0,0.5,0.4,0.9,0.9,1l4.4,0.5
		c0.5,1.7,1.2,3.3,2,4.9l-2.8,3.4c-0.3,0.4-0.3,1,0.1,1.3l7.9,7.9c0.4,0.4,0.9,0.4,1.3,0.1l3.4-2.8c1.6,0.9,3.2,1.5,4.9,2l0.5,4.4
		c0.1,0.5,0.5,0.9,1,0.9h11.2c0.5,0,0.9-0.4,1-0.9l0.5-4.4c1.7-0.5,3.3-1.2,4.9-2L60,70c0.4,0.3,1,0.3,1.3-0.1l7.9-7.9
		c0.4-0.4,0.4-0.9,0.1-1.3l-2.8-3.4c0.9-1.6,1.5-3.2,2-4.9l4.4-0.5c0.5-0.1,0.9-0.5,0.9-1V39.8C73.8,39.3,73.4,38.8,72.9,38.8z"/>
	<path style="fill:#61dafb;" class="st0" d="M75,25.1l-6.2-6.2c-0.4-0.4-1-0.4-1.4,0L44.6,41.8l-5.4-5.4c-0.4-0.4-1-0.4-1.4,0l-6.2,6.2
		c-0.2,0.2-0.3,0.4-0.3,0.7s0.1,0.5,0.3,0.7l12.3,12.3c0.2,0.2,0.4,0.3,0.7,0.3s0.5-0.1,0.7-0.3L75,26.5c0.2-0.2,0.3-0.4,0.3-0.7
		S75.2,25.3,75,25.1z M44.6,54.1L33.7,43.2l4.7-4.7l5.4,5.4c0.2,0.2,0.4,0.3,0.7,0.3s0.5-0.1,0.7-0.3L68.2,21l4.7,4.7L44.6,54.1z"/>
</g>
</svg>