<?xml version="1.0" standalone="no"?>
<!DOCTYPE svg PUBLIC "-//W3C//DTD SVG 20010904//EN"
 "http://www.w3.org/TR/2001/REC-SVG-20010904/DTD/svg10.dtd">
<svg version="1.0" xmlns="http://www.w3.org/2000/svg"
 width="1280.000000pt" height="923.000000pt" viewBox="0 0 1280.000000 923.000000"
 preserveAspectRatio="xMidYMid meet">
<metadata>
Created by potrace 1.15, written by Peter Selinger 2001-2017
</metadata>
<g transform="translate(0.000000,923.000000) scale(0.100000,-0.100000)"
stroke="none">
<path fill="#33383c" d="M11235 9211 c-70 -31 -125 -114 -125 -186 0 -11 32 -114 70 -229 38
-116 68 -212 66 -214 -2 -2 -2500 -835 -5550 -1852 -3050 -1016 -5561 -1857
-5580 -1869 -135 -84 -153 -286 -34 -397 53 -51 96 -68 168 -69 60 0 466 134
5605 1848 3047 1016 5545 1847 5552 1847 6 0 41 -89 77 -197 37 -108 78 -211
91 -229 54 -71 173 -95 253 -51 29 15 170 169 484 526 244 277 452 518 463
535 15 23 20 48 20 98 0 57 -4 72 -30 110 -18 26 -48 52 -75 65 -46 22 -1324
283 -1385 283 -16 0 -48 -9 -70 -19z"/>
<path fill="#61dafb" d="M9480 3075 l0 -3075 1280 0 1280 0 0 3075 0 3075 -1280 0 -1280 0 0
-3075z"/>
<path fill="#3498db" d="M6410 2560 l0 -2560 1280 0 1280 0 0 2560 0 2560 -1280 0 -1280 0 0
-2560z"/>
<path fill="#61dafb" d="M3330 2050 l0 -2050 1280 0 1280 0 0 2050 0 2050 -1280 0 -1280 0 0
-2050z"/>
<path fill="#3498db" d="M260 1535 l0 -1535 1280 0 1280 0 0 1535 0 1535 -1280 0 -1280 0 0
-1535z"/>
</g>
</svg>
